<?xml version="1.0" encoding="UTF-8"?>
<svg xmlns="http://www.w3.org/2000/svg" width="53.14mm" height="148.3mm" xmlns:xlink="http://www.w3.org/1999/xlink" version="1.1" viewBox="0 0 150.64 420.38">
  <!-- Generator: Adobe Illustrator 29.2.1, SVG Export Plug-In . SVG Version: 2.1.0 Build 116)  -->
  <defs>
    <clipPath id="clippath">
      <rect x="28.46" y="171.75" width="5.76" height="5.76" fill="#fff"/>
    </clipPath>
    <clipPath id="clippath-1">
      <rect x="66.38" y="171.75" width="5.76" height="5.76" fill="#fff"/>
    </clipPath>
    <clipPath id="clippath-2">
      <rect x="66.38" y="108.39" width="5.76" height="5.76" fill="#fff"/>
    </clipPath>
  </defs>
  <g id="Layer_2">
    <polygon points="13.7 420.39 13.7 56.07 126.65 56.07 126.65 316.45 139.57 334.48 139.57 420.37 13.7 420.39" fill="#dadada"/>
  </g>
  <g id="Layer_1">
    <g>
      <text transform="translate(105.37 192.23)" fill="#231f20" font-family="URWDIN-Medium, &apos;URW DIN&apos;" font-size="7" font-weight="500"><tspan x="0" y="0">Z</tspan></text>
      <text transform="translate(29.53 192.23)" fill="#231f20" font-family="URWDIN-Medium, &apos;URW DIN&apos;" font-size="7" font-weight="500"><tspan x="0" y="0">X</tspan></text>
      <text transform="translate(67.3 192.23)" fill="#231f20" font-family="URWDIN-Medium, &apos;URW DIN&apos;" font-size="7" font-weight="500"><tspan x="0" y="0">Y</tspan></text>
      <text transform="translate(49.91 66.12)" fill="#231f20" font-family="URWDIN-Medium, &apos;URW DIN&apos;" font-size="9" font-weight="500"><tspan x="0" y="0">Computer</tspan></text>
      <rect x="13.29" y="55.85" width=".28" height=".28" fill="#231f20"/>
      <g>
        <line x1="39.99" y1="82.31" x2="41.87" y2="84.19" fill="none" stroke="#231f20" stroke-miterlimit="10" stroke-width=".5"/>
        <line x1="96.8" y1="83.86" x2="98.49" y2="82.17" fill="none" stroke="#231f20" stroke-miterlimit="10" stroke-width=".5"/>
        <line x1="40.04" y1="140.51" x2="41.74" y2="138.81" fill="none" stroke="#231f20" stroke-miterlimit="10" stroke-width=".5"/>
        <path d="M48.87,147.41c-12.52-7.11-20.96-20.57-20.96-35.99,0-22.84,18.52-41.36,41.36-41.36s41.36,18.52,41.36,41.36c0,15.19-8.18,28.46-20.38,35.65" fill="none" stroke="#231f20" stroke-miterlimit="10" stroke-width=".5"/>
        <line x1="69.27" y1="72.46" x2="69.27" y2="70.05" fill="none" stroke="#231f20" stroke-miterlimit="10" stroke-width=".5"/>
        <line x1="27.9" y1="111.41" x2="30.75" y2="111.41" fill="none" stroke="#231f20" stroke-miterlimit="10" stroke-width=".5"/>
        <line x1="108.14" y1="111.41" x2="110.63" y2="111.41" fill="none" stroke="#231f20" stroke-miterlimit="10" stroke-width=".5"/>
        <line x1="96.5" y1="138.81" x2="98.38" y2="140.69" fill="none" stroke="#231f20" stroke-miterlimit="10" stroke-width=".5"/>
        <line x1="47.68" y1="149.56" x2="48.95" y2="147.31" fill="none" stroke="#231f20" stroke-miterlimit="10" stroke-width=".5"/>
        <line x1="91.46" y1="149.34" x2="90.09" y2="147.02" fill="none" stroke="#231f20" stroke-miterlimit="10" stroke-width=".5"/>
      </g>
      <g>
        <path d="M60.25,183.4c-2.25-2.27-3.64-5.4-3.64-8.85,0-6.95,5.63-12.59,12.59-12.59s12.59,5.63,12.59,12.59c0,3.44-1.38,6.55-3.61,8.82" fill="none" stroke="#231f20" stroke-miterlimit="10" stroke-width=".5"/>
        <line x1="56.61" y1="174.45" x2="58.34" y2="174.45" fill="none" stroke="#231f20" stroke-miterlimit="10" stroke-width=".5"/>
        <line x1="60.36" y1="165.56" x2="61.59" y2="166.79" fill="none" stroke="#231f20" stroke-miterlimit="10" stroke-width=".5"/>
        <line x1="80.06" y1="174.45" x2="81.76" y2="174.45" fill="none" stroke="#231f20" stroke-miterlimit="10" stroke-width=".5"/>
        <line x1="76.82" y1="166.81" x2="78.04" y2="165.59" fill="none" stroke="#231f20" stroke-miterlimit="10" stroke-width=".5"/>
        <line x1="60.14" y1="183.51" x2="61.48" y2="182.15" fill="none" stroke="#231f20" stroke-miterlimit="10" stroke-width=".5"/>
        <line x1="69.25" y1="163.68" x2="69.25" y2="161.96" fill="none" stroke="#231f20" stroke-miterlimit="10" stroke-width=".5"/>
        <line x1="76.95" y1="182.15" x2="78.28" y2="183.48" fill="none" stroke="#231f20" stroke-miterlimit="10" stroke-width=".5"/>
      </g>
      <g>
        <path d="M22.52,183.4c-2.25-2.27-3.64-5.4-3.64-8.85,0-6.95,5.63-12.59,12.59-12.59s12.59,5.63,12.59,12.59c0,3.44-1.38,6.55-3.61,8.82" fill="none" stroke="#231f20" stroke-miterlimit="10" stroke-width=".5"/>
        <line x1="18.89" y1="174.45" x2="20.61" y2="174.45" fill="none" stroke="#231f20" stroke-miterlimit="10" stroke-width=".5"/>
        <line x1="22.64" y1="165.56" x2="23.87" y2="166.79" fill="none" stroke="#231f20" stroke-miterlimit="10" stroke-width=".5"/>
        <line x1="42.33" y1="174.45" x2="44.04" y2="174.45" fill="none" stroke="#231f20" stroke-miterlimit="10" stroke-width=".5"/>
        <line x1="39.1" y1="166.81" x2="40.31" y2="165.59" fill="none" stroke="#231f20" stroke-miterlimit="10" stroke-width=".5"/>
        <line x1="22.41" y1="183.51" x2="23.76" y2="182.15" fill="none" stroke="#231f20" stroke-miterlimit="10" stroke-width=".5"/>
        <line x1="31.53" y1="163.68" x2="31.53" y2="161.96" fill="none" stroke="#231f20" stroke-miterlimit="10" stroke-width=".5"/>
        <line x1="39.22" y1="182.15" x2="40.55" y2="183.48" fill="none" stroke="#231f20" stroke-miterlimit="10" stroke-width=".5"/>
      </g>
      <g>
        <polyline points="23.59 320.63 25.59 318.63 27.58 320.63" fill="none" stroke="#231f20" stroke-linecap="round" stroke-linejoin="round" stroke-width=".75"/>
        <g>
          <line x1="25.61" y1="319.07" x2="25.61" y2="324.05" fill="none" stroke="#231f20" stroke-linecap="round" stroke-linejoin="round" stroke-width=".75"/>
          <circle cx="25.59" cy="321.34" r="4.91" fill="none" stroke="#231f20" stroke-miterlimit="10" stroke-width=".5"/>
        </g>
      </g>
      <g>
        <g>
          <line x1="54.61" y1="319.07" x2="54.61" y2="324.05" fill="none" stroke="#231f20" stroke-miterlimit="10" stroke-width=".5"/>
          <polyline points="52.59 320.63 54.58 318.63 56.58 320.63" fill="none" stroke="#231f20" stroke-linecap="round" stroke-linejoin="round" stroke-width=".75"/>
        </g>
        <circle cx="54.58" cy="321.34" r="4.91" fill="none" stroke="#231f20" stroke-miterlimit="10" stroke-width=".5"/>
      </g>
      <path d="M83.33,316.97c-2.57,0-4.66,2.09-4.66,4.66s2.09,4.66,4.66,4.66,4.66-2.09,4.66-4.66-2.09-4.66-4.66-4.66ZM85.59,322.61l-2,2c-.07.07-.17.11-.27.11s-.19-.04-.27-.11l-2-2c-.15-.15-.15-.38,0-.53s.38-.15.53,0l1.33,1.33v-4.49c0-.21.17-.38.38-.38s.38.17.38.38v4.54l1.38-1.38c.15-.15.38-.15.53,0s.15.38,0,.53Z" fill="#231f20"/>
      <path d="M112.56,316.97c-2.57,0-4.66,2.09-4.66,4.66s2.09,4.66,4.66,4.66,4.66-2.09,4.66-4.66-2.09-4.66-4.66-4.66ZM114.82,322.61l-2,2c-.07.07-.17.11-.27.11s-.19-.04-.27-.11l-2-2c-.15-.15-.15-.38,0-.53s.38-.15.53,0l1.33,1.33v-4.49c0-.21.17-.38.38-.38s.38.17.38.38v4.54l1.38-1.38c.15-.15.38-.15.53,0s.15.38,0,.53Z" fill="#231f20"/>
      <g>
        <polyline points="23.59 282.7 25.59 280.7 27.58 282.7" fill="none" stroke="#231f20" stroke-linecap="round" stroke-linejoin="round" stroke-width=".75"/>
        <g>
          <line x1="25.61" y1="281.14" x2="25.61" y2="286.12" fill="none" stroke="#231f20" stroke-linecap="round" stroke-linejoin="round" stroke-width=".75"/>
          <circle cx="25.59" cy="283.41" r="4.91" fill="none" stroke="#231f20" stroke-miterlimit="10" stroke-width=".5"/>
        </g>
      </g>
      <g>
        <g>
          <line x1="54.61" y1="281.14" x2="54.61" y2="286.12" fill="none" stroke="#231f20" stroke-linecap="round" stroke-linejoin="round" stroke-width=".75"/>
          <polyline points="52.59 282.7 54.58 280.7 56.58 282.7" fill="none" stroke="#231f20" stroke-linecap="round" stroke-linejoin="round" stroke-width=".75"/>
        </g>
        <circle cx="54.58" cy="283.41" r="4.91" fill="none" stroke="#231f20" stroke-miterlimit="10" stroke-width=".5"/>
      </g>
      <path d="M83.33,279.04c-2.57,0-4.66,2.09-4.66,4.66s2.09,4.66,4.66,4.66,4.66-2.09,4.66-4.66-2.09-4.66-4.66-4.66ZM85.59,284.67l-2,2c-.07.07-.17.11-.27.11s-.19-.04-.27-.11l-2-2c-.15-.15-.15-.38,0-.53s.38-.15.53,0l1.33,1.33v-4.49c0-.21.17-.38.38-.38s.38.17.38.38v4.54l1.38-1.38c.15-.15.38-.15.53,0s.15.38,0,.53Z" fill="#231f20"/>
      <path d="M112.56,279.04c-2.57,0-4.66,2.09-4.66,4.66s2.09,4.66,4.66,4.66,4.66-2.09,4.66-4.66-2.09-4.66-4.66-4.66ZM114.82,284.67l-2,2c-.07.07-.17.11-.27.11s-.19-.04-.27-.11l-2-2c-.15-.15-.15-.38,0-.53s.38-.15.53,0l1.33,1.33v-4.49c0-.21.17-.38.38-.38s.38.17.38.38v4.54l1.38-1.38c.15-.15.38-.15.53,0s.15.38,0,.53Z" fill="#231f20"/>
      <g>
        <polyline points="23.59 243.12 25.59 241.13 27.58 243.12" fill="none" stroke="#231f20" stroke-linecap="round" stroke-linejoin="round" stroke-width=".75"/>
        <g>
          <line x1="25.61" y1="241.57" x2="25.61" y2="246.54" fill="none" stroke="#231f20" stroke-linecap="round" stroke-linejoin="round" stroke-width=".75"/>
          <circle cx="25.59" cy="243.84" r="4.91" fill="none" stroke="#231f20" stroke-linecap="round" stroke-linejoin="round" stroke-width=".5"/>
        </g>
      </g>
      <g>
        <g>
          <line x1="54.61" y1="241.57" x2="54.61" y2="246.54" fill="none" stroke="#231f20" stroke-linecap="round" stroke-linejoin="round" stroke-width=".75"/>
          <polyline points="52.59 243.12 54.58 241.13 56.58 243.12" fill="none" stroke="#231f20" stroke-linecap="round" stroke-linejoin="round" stroke-width=".75"/>
        </g>
        <circle cx="54.58" cy="243.84" r="4.91" fill="none" stroke="#231f20" stroke-miterlimit="10" stroke-width=".5"/>
      </g>
      <path d="M83.33,239.46c-2.57,0-4.66,2.09-4.66,4.66s2.09,4.66,4.66,4.66,4.66-2.09,4.66-4.66-2.09-4.66-4.66-4.66ZM85.59,245.1l-2,2c-.07.07-.17.11-.27.11s-.19-.04-.27-.11l-2-2c-.15-.15-.15-.38,0-.53s.38-.15.53,0l1.33,1.33v-4.49c0-.21.17-.38.38-.38s.38.17.38.38v4.54l1.38-1.38c.15-.15.38-.15.53,0s.15.38,0,.53Z" fill="#231f20"/>
      <path d="M112.56,239.46c-2.57,0-4.66,2.09-4.66,4.66s2.09,4.66,4.66,4.66,4.66-2.09,4.66-4.66-2.09-4.66-4.66-4.66ZM114.82,245.1l-2,2c-.07.07-.17.11-.27.11s-.19-.04-.27-.11l-2-2c-.15-.15-.15-.38,0-.53s.38-.15.53,0l1.33,1.33v-4.49c0-.21.17-.38.38-.38s.38.17.38.38v4.54l1.38-1.38c.15-.15.38-.15.53,0s.15.38,0,.53Z" fill="#231f20"/>
      <g>
        <rect x="61.31" y="393.63" width="3.39" height="2.83" transform="translate(-332.04 458.04) rotate(-90)" fill="#231f20"/>
        <rect x="65.2" y="393.63" width="3.39" height="2.83" transform="translate(-328.15 461.93) rotate(-90)" fill="#231f20"/>
        <rect x="69.09" y="393.63" width="3.39" height="2.83" transform="translate(-324.26 465.82) rotate(-90)" fill="#231f20"/>
        <rect x="72.59" y="394.01" width="4.16" height="2.83" transform="translate(-320.75 470.1) rotate(-90)" fill="#231f20"/>
        <rect x="76.87" y="393.63" width="3.39" height="2.83" transform="translate(-316.48 473.61) rotate(-90)" fill="#231f20"/>
        <rect x="80.76" y="393.63" width="3.39" height="2.83" transform="translate(-312.59 477.5) rotate(-90)" fill="#231f20"/>
        <rect x="84.65" y="393.63" width="3.39" height="2.83" transform="translate(-308.7 481.39) rotate(-90)" fill="#231f20"/>
        <rect x="88.16" y="394.01" width="4.16" height="2.83" transform="translate(-305.19 485.66) rotate(-90)" fill="#231f20"/>
      </g>
      <text transform="translate(61.12 407.21) scale(1.07 1)" fill="#231f20" font-family="HelveticaNeue-CondensedBold, &apos;Helvetica Neue&apos;" font-size="8.66" font-weight="700"><tspan x="0" y="0">Workshop System</tspan></text>
      <text/>
      <circle cx="69.26" cy="111.27" r="10.2" transform="translate(-48.15 53.03) rotate(-31.72)" fill="#231f20"/>
      <rect x="13.46" y="56.07" width=".24" height="364.32" fill="#a7a9ab"/>
      <rect x="18.02" y="332.07" width=".24" height="16.32" fill="#a7a9ab"/>
      <rect x="28.1" y="332.07" width=".24" height="16.32" fill="#a7a9ab"/>
      <path d="M23.3,353.73c-2.88,0-5.22-2.34-5.22-5.22h.24c0,2.75,2.24,4.98,4.98,4.98s4.98-2.24,4.98-4.98h.24c0,2.88-2.34,5.22-5.22,5.22Z" fill="#a7a9ab"/>
      <path d="M28.52,332.19h-.24c0-2.75-2.23-4.98-4.98-4.98s-4.98,2.24-4.98,4.98h-.24c0-2.88,2.34-5.22,5.22-5.22s5.22,2.34,5.22,5.22Z" fill="#a7a9ab"/>
      <rect x="59.9" y="391.23" width="38.16" height=".24" fill="#a7a9ab"/>
      <rect x="59.78" y="383.43" width=".24" height="7.92" fill="#a7a9ab"/>
      <rect x="59.9" y="383.31" width="38.16" height=".24" fill="#a7a9ab"/>
      <rect x="97.94" y="383.43" width=".24" height="7.92" fill="#a7a9ab"/>
      <circle cx="20.3" cy="391.35" r="4.44" fill="#e52629"/>
      <circle cx="20.3" cy="365.43" r="4.44" fill="#e52629"/>
      <circle cx="33.5" cy="391.35" r="4.44" fill="#e52629"/>
      <circle cx="34.94" cy="411.75" r="4.68" transform="translate(-373.82 351.15) rotate(-76.72)" fill="#a7a9ab"/>
      <circle cx="113.18" cy="388.95" r="5.16" fill="#a7a9ab"/>
      <circle cx="20.3" cy="378.39" r="4.44" fill="#e52629"/>
      <circle cx="33.5" cy="365.43" r="4.44" fill="#e52629"/>
      <circle cx="33.5" cy="378.39" r="4.44" fill="#e52629"/>
      <circle cx="34.94" cy="64.47" r="4.68" fill="#a7a9ab"/>
      <circle cx="95.18" cy="98.55" r="5.16" transform="translate(-19.59 173.37) rotate(-79.1)" fill="#a7a9ab"/>
      <circle cx="83.66" cy="224.07" r="8.76" fill="none" stroke="#808386" stroke-miterlimit="10"/>
      <circle cx="112.46" cy="303.27" r="8.76" fill="none" stroke="#808386" stroke-miterlimit="10"/>
      <circle cx="83.66" cy="263.67" r="8.76" transform="translate(-191.95 240.06) rotate(-67.5)" fill="none" stroke="#808386" stroke-miterlimit="10"/>
      <circle cx="112.46" cy="263.67" r="8.76" transform="translate(-167.72 324.23) rotate(-79.1)" fill="none" stroke="#808386" stroke-miterlimit="10"/>
      <circle cx="112.46" cy="224.07" r="8.76" fill="none" stroke="#808386" stroke-miterlimit="10"/>
      <circle cx="83.66" cy="303.27" r="8.76" fill="none" stroke="#808386" stroke-miterlimit="10"/>
      <circle cx="106.94" cy="174.63" r="7.32" fill="none" stroke="#939599" stroke-miterlimit="10"/>
      <circle cx="26.06" cy="263.67" r="8.76" transform="translate(-233.85 212.2) rotate(-73.15)" fill="none" stroke="#808386" stroke-miterlimit="10"/>
      <circle cx="54.86" cy="303.27" r="8.76" fill="none" stroke="#808386" stroke-miterlimit="10"/>
      <circle cx="26.06" cy="224.07" r="8.76" fill="none" stroke="#808386" stroke-miterlimit="10"/>
      <circle cx="26.06" cy="303.27" r="8.76" fill="none" stroke="#808386" stroke-miterlimit="10"/>
      <circle cx="54.86" cy="263.67" r="8.76" transform="translate(-213.39 239.76) rotate(-73.15)" fill="none" stroke="#808386" stroke-miterlimit="10"/>
      <circle cx="54.86" cy="224.07" r="8.76" fill="none" stroke="#808386" stroke-miterlimit="10"/>
      <path d="M22.5,343.49c.01.27.31-.43.33-.02.05,1.05,1.98,2.91,2.03,3.9,1.15,21.91,72.67-20.87,73.59-3.32,1.04,19.87-78.01-12.88-76.81,8.34,1.71,30.22,114.52-38.19,116.2-6.09,1.55,29.55-136.44-42.65-120.16,7.86,8.79,27.27,109.73-54.87,112.47-2.53,2.39,45.69-104-32.74-115.18,14.33-14.03,59.07,116.17-34.83,117.67-6.17,2.4,45.7-123.85-24.29-118.01,7.69,4.05,22.13,119.75-38.87,121.64-2.77,2.65,50.54-121.72-44.25-110.57,12.09,5.69,28.76,108.32-30.66,109.92-5.55,1.85,29.15-92.69-10.64-94.11,12.33-2.16,34.81,95.22-41.58,97.23-5.85,2.45,43.58-123.71-13.36-123.92,13.01s102.9-25.37,106.56-4.54c5.63,32.05-99.92-22.61-95.03,8.82,3.94,25.33,117.91-49.58,111.52-4.4-3.57,25.23-84.76-12.8-83.28,3.97.76,8.54,56,2.89,60.13,1.54" fill="none" stroke="#e7e8e9" stroke-linecap="round" stroke-linejoin="round" stroke-width=".36"/>
      <text></text>
      <text transform="translate(61.12 415.87) scale(1.07 1)" fill="#fff" font-family="HelveticaNeue-CondensedBold, &apos;Helvetica Neue&apos;" font-size="8.66" font-weight="700"><tspan x="0" y="0">Music Thing Modular</tspan></text>
      <text transform="translate(52.84 207.38)" fill="#d4af37" font-family="URWDIN-Demi, &apos;URW DIN&apos;" font-size="7" font-weight="300"><tspan x="0" y="0">CV / Audio</tspan></text>
      <text transform="translate(58.58 333.02)" fill="#d4af37" font-family="URWDIN-Demi, &apos;URW DIN&apos;" font-size="7" font-weight="300"><tspan x="0" y="0">Pulses</tspan></text>
      <text transform="translate(64.79 285.96)" fill="#d4af37" font-family="URWDIN-Demi, &apos;URW DIN&apos;" font-size="7" font-weight="300"><tspan x="0" y="0">CV</tspan></text>
      <circle cx="69.26" cy="111.27" r="10.2" transform="translate(-48.15 53.03) rotate(-31.72)" fill="#fff"/>
      <rect x="59.88" y="383.55" width="38.18" height="7.81" fill="#414142"/>
      <g>
        <rect x="28.46" y="171.75" width="5.76" height="5.76" fill="#fff"/>
        <g clip-path="url(#clippath)">
          <path d="M33.74,174.63c0,3.2-4.8,3.2-4.8,0s4.8-3.2,4.8,0Z" fill="#010101"/>
        </g>
      </g>
      <g>
        <rect x="66.38" y="171.75" width="5.76" height="5.76" fill="#fff"/>
        <g clip-path="url(#clippath-1)">
          <path d="M71.66,174.63c0,3.2-4.8,3.2-4.8,0s4.8-3.2,4.8,0Z" fill="#010101"/>
        </g>
      </g>
      <g>
        <rect x="66.38" y="108.39" width="5.76" height="5.76" fill="#fff"/>
        <g clip-path="url(#clippath-2)">
          <path d="M71.66,111.27c0,3.2-4.8,3.2-4.8,0s4.8-3.2,4.8,0Z" fill="#010101"/>
        </g>
      </g>
    </g>
    <g>
      <line x1="73.63" y1="182.83" x2="75.34" y2="183.87" fill="none" stroke="#ffed00" stroke-miterlimit="10" stroke-width="4"/>
      <line x1="78.57" y1="185.83" x2="109.23" y2="204.49" fill="none" stroke="#ffed00" stroke-dasharray="3.78 3.78" stroke-miterlimit="10" stroke-width="4"/>
      <polyline points="110.85 205.47 112.56 206.51 112.56 208.51" fill="none" stroke="#ffed00" stroke-miterlimit="10" stroke-width="4"/>
      <line x1="112.56" y1="212.4" x2="112.56" y2="295.99" fill="none" stroke="#ffed00" stroke-dasharray="3.89 3.89" stroke-miterlimit="10" stroke-width="4"/>
      <line x1="112.56" y1="297.94" x2="112.56" y2="299.94" fill="none" stroke="#ffed00" stroke-miterlimit="10" stroke-width="4"/>
    </g>
    <rect x="49.67" y="96.94" width="39.06" height="23.57" fill="#fcea10"/>
    <text transform="translate(56.26 113.73)" fill="#1d1d1b" font-family="URWDINCond-Bold, &apos;URW DIN Cond&apos;" font-size="14" font-weight="700"><tspan x="0" y="0">LOCK</tspan></text>
    <rect x="17.15" y="168.05" width="27.19" height="12.8" fill="#fcea10"/>
    <text transform="translate(18.25 177.66)" fill="#1d1d1b" font-family="URWDINCond-Bold, &apos;URW DIN Cond&apos;" font-size="9" font-weight="700"><tspan x="0" y="0">LENGTH</tspan></text>
    <rect x="57.53" y="163.68" width="27.19" height="19.97" fill="#fcea10"/>
    <text transform="translate(60.7 172.38)" fill="#1d1d1b" font-family="URWDINCond-Bold, &apos;URW DIN Cond&apos;" font-size="9" font-weight="700"><tspan x="0" y="0">CLOCK </tspan><tspan x="-1.97" y="9">DIVIPLY</tspan></text>
    <rect x="95.15" y="182.81" width="25.5" height="12" fill="#fcea10"/>
    <g>
      <path d="M98.77,187.25l1.34-3.23h-1.21v-.64h2.04v.41l-1.34,3.23h1.4v.64h-2.24v-.41Z" fill="#1d1d1b"/>
      <path d="M101.47,184.58h.77v.76h-.77v-.76ZM101.47,186.9h.77v.76h-.77v-.76Z" fill="#1d1d1b"/>
      <path d="M103.83,183.38h1.06c.98-.02,1.36.35,1.34,1.31v1.67c.02.95-.37,1.33-1.34,1.31h-1.06v-4.28ZM104.92,187.05c.44,0,.53-.14.54-.82v-1.4c0-.68-.1-.82-.54-.82h-.32v3.05h.32Z" fill="#1d1d1b"/>
      <path d="M106.79,184.73c0-1.02.35-1.42,1.24-1.42s1.24.4,1.24,1.42v1.58c0,1.02-.35,1.42-1.24,1.42s-1.24-.4-1.24-1.42v-1.58ZM108.49,184.8c0-.66-.11-.86-.46-.86s-.47.2-.47.86v1.45c0,.66.11.86.47.86s.46-.2.46-.86v-1.45Z" fill="#1d1d1b"/>
      <path d="M109.62,183.38h.77l.38,2.94.62-2.94h.6l.61,2.94.38-2.94h.77l-.76,4.28h-.7l-.61-2.82-.61,2.82h-.7l-.76-4.28Z" fill="#1d1d1b"/>
      <path d="M114.22,183.38h.77l1.03,2.73v-2.73h.72v4.28h-.73l-1.07-2.76v2.76h-.72v-4.28Z" fill="#1d1d1b"/>
      <path d="M97.01,189.02h-.76v-.64h2.29v.64h-.76v3.65h-.77v-3.65Z" fill="#1d1d1b"/>
      <path d="M99.41,191.81l-.19.85h-.83l1.21-4.28h.64l1.21,4.28h-.83l-.18-.85h-1.03ZM99.93,189.43l-.38,1.77h.76l-.38-1.77Z" fill="#1d1d1b"/>
      <path d="M102.45,192.67h-.77v-4.28h1.03c.52,0,.79.1.98.35.18.23.26.55.26,1.01,0,.5-.1.85-.31,1.07-.2.21-.46.29-.94.29h-.26v1.55ZM102.71,190.49c.35,0,.47-.2.47-.77,0-.25-.04-.46-.12-.58-.07-.11-.16-.14-.35-.14h-.29v1.49h.29Z" fill="#1d1d1b"/>
      <path d="M105.8,189.02h-.76v-.64h2.29v.64h-.76v3.65h-.77v-3.65Z" fill="#1d1d1b"/>
      <path d="M107.78,188.38h2.06v.64h-1.29v1.17h1.08v.64h-1.08v1.21h1.32v.64h-2.09v-4.28Z" fill="#1d1d1b"/>
      <path d="M110.38,188.38h.72l.78,2.33.79-2.33h.72v4.28h-.74v-2.58l-.52,1.67h-.49l-.52-1.67v2.58h-.74v-4.28Z" fill="#1d1d1b"/>
      <path d="M114.86,192.67h-.77v-4.28h1.03c.52,0,.79.1.98.35.18.23.26.55.26,1.01,0,.5-.1.85-.31,1.07-.2.21-.46.29-.94.29h-.26v1.55ZM115.12,190.49c.35,0,.47-.2.47-.77,0-.25-.04-.46-.12-.58-.07-.11-.16-.14-.35-.14h-.29v1.49h.29Z" fill="#1d1d1b"/>
      <path d="M116.82,189.73c0-1.02.35-1.42,1.24-1.42s1.24.4,1.24,1.42v1.58c0,1.02-.35,1.42-1.24,1.42s-1.24-.4-1.24-1.42v-1.58ZM118.52,189.8c0-.66-.11-.86-.46-.86s-.47.2-.47.86v1.45c0,.66.11.86.47.86s.46-.2.46-.86v-1.45Z" fill="#1d1d1b"/>
    </g>
    <rect x="73.63" y="217.66" width="51.16" height="12.8" fill="#fcea10"/>
    <text transform="translate(79.9 227.28)" fill="#1d1d1b" font-family="URWDINCond-Bold, &apos;URW DIN Cond&apos;" font-size="9" font-weight="700"><tspan x="0" y="0">MOD CV OUT </tspan></text>
    <rect x="75.43" y="256.84" width="48.37" height="13.64" fill="#fcea10"/>
    <text transform="translate(78.31 266.88)" fill="#1d1d1b" font-family="URWDINCond-Bold, &apos;URW DIN Cond&apos;" font-size="9" font-weight="700"><tspan x="0" y="0">PITCH CV OUT</tspan></text>
    <rect x="71.53" y="295.97" width="52.27" height="14.59" fill="#fcea10"/>
    <text transform="translate(80.45 306.48)" fill="#1d1d1b" font-family="URWDINCond-Bold, &apos;URW DIN Cond&apos;" font-size="9" font-weight="700"><tspan x="0" y="0">PULSE OUT</tspan></text>
    <rect x="22.46" width="93.61" height="49.32" fill="#fcea10"/>
    <text transform="translate(37.35 22.23)" fill="#1d1d1b" font-family="URWDINCond-Bold, &apos;URW DIN Cond&apos;" font-size="24" font-weight="700"><tspan x="0" y="0">TURING </tspan><tspan x="-7.42" y="22">MACHINE</tspan></text>
    <rect x="12.46" y="253.76" width="27.19" height="20.67" fill="#fcea10"/>
    <text transform="translate(13.67 261.9)" fill="#1d1d1b" font-family="URWDINCond-Bold, &apos;URW DIN Cond&apos;" font-size="9" font-weight="700"><tspan x="0" y="0">DIVIPLY </tspan><tspan x="8.15" y="10.8">CV</tspan></text>
    <rect x="95.15" y="169.38" width="25.5" height="12" fill="#fcea10"/>
    <text transform="translate(97.4 177.52)" fill="#1d1d1b" font-family="URWDINCond-Bold, &apos;URW DIN Cond&apos;" font-size="6" font-weight="700"><tspan x="0" y="0">Z: MIDDLE</tspan></text>
    <rect x="95.15" y="155.93" width="25.5" height="12" fill="#fcea10"/>
    <text transform="translate(102.64 164.07)" fill="#1d1d1b" font-family="URWDINCond-Bold, &apos;URW DIN Cond&apos;" font-size="6" font-weight="700"><tspan x="0" y="0">Z: UP</tspan></text>
    <rect x="89.53" y="130.42" width="11.24" height="22.89" transform="translate(-72.45 108.83) rotate(-45)" fill="#fcea10"/>
    <text transform="translate(86.49 136.79) rotate(45)" fill="#1d1d1b" font-family="URWDINCond-Bold, &apos;URW DIN Cond&apos;" font-size="7" font-weight="700"><tspan x="0" y="0">LOCKED</tspan></text>
    <rect x="29.49" y="133.55" width="22.89" height="16.63" transform="translate(-88.33 70.49) rotate(-45)" fill="#fcea10"/>
    <text transform="translate(33.54 148.6) rotate(-45)" fill="#1d1d1b" font-family="URWDINCond-Bold, &apos;URW DIN Cond&apos;" font-size="7" font-weight="700"><tspan x="0" y="0">DOUBLE </tspan><tspan x=".3" y="6">LENGTH</tspan></text>
    <rect x="56.98" y="66.84" width="24.58" height="11.24" fill="#fcea10"/>
    <text transform="translate(58.37 74.96)" fill="#1d1d1b" font-family="URWDINCond-Bold, &apos;URW DIN Cond&apos;" font-size="7" font-weight="700"><tspan x="0" y="0">RANDOM</tspan></text>
  </g>
</svg>