<?xml version="1.0" encoding="UTF-8"?>
<svg xmlns="http://www.w3.org/2000/svg" width="52.17mm" height="145.9mm" xmlns:xlink="http://www.w3.org/1999/xlink" version="1.1" viewBox="0 0 147.88 413.56">
  <!-- Generator: Adobe Illustrator 29.2.1, SVG Export Plug-In . SVG Version: 2.1.0 Build 116)  -->
  <defs>
    <clipPath id="clippath">
      <rect x="21.64" y="164.93" width="5.76" height="5.76" fill="#fff"/>
    </clipPath>
    <clipPath id="clippath-1">
      <rect x="59.56" y="164.93" width="5.76" height="5.76" fill="#fff"/>
    </clipPath>
    <clipPath id="clippath-2">
      <rect x="59.56" y="101.57" width="5.76" height="5.76" fill="#fff"/>
    </clipPath>
  </defs>
  <g id="Layer_2">
    <polygon points="6.88 413.57 6.88 49.25 119.83 49.25 119.83 309.63 132.74 327.66 132.74 413.56 6.88 413.57" fill="#dadada"/>
  </g>
  <g id="Layer_1">
    <g>
      <text transform="translate(98.54 185.41)" fill="#231f20" font-family="URWDIN-Medium, &apos;URW DIN&apos;" font-size="7" font-weight="500"><tspan x="0" y="0">Z</tspan></text>
      <text transform="translate(22.71 185.41)" fill="#231f20" font-family="URWDIN-Medium, &apos;URW DIN&apos;" font-size="7" font-weight="500"><tspan x="0" y="0">X</tspan></text>
      <text transform="translate(60.48 185.41)" fill="#231f20" font-family="URWDIN-Medium, &apos;URW DIN&apos;" font-size="7" font-weight="500"><tspan x="0" y="0">Y</tspan></text>
      <text transform="translate(43.09 59.3)" fill="#231f20" font-family="URWDIN-Medium, &apos;URW DIN&apos;" font-size="9" font-weight="500"><tspan x="0" y="0">Computer</tspan></text>
      <rect x="6.47" y="49.04" width=".28" height=".28" fill="#231f20"/>
      <g>
        <line x1="33.17" y1="75.5" x2="35.05" y2="77.37" fill="none" stroke="#231f20" stroke-miterlimit="10" stroke-width=".5"/>
        <line x1="89.97" y1="77.04" x2="91.67" y2="75.35" fill="none" stroke="#231f20" stroke-miterlimit="10" stroke-width=".5"/>
        <line x1="33.22" y1="133.69" x2="34.92" y2="131.99" fill="none" stroke="#231f20" stroke-miterlimit="10" stroke-width=".5"/>
        <path d="M42.05,140.59c-12.52-7.11-20.96-20.57-20.96-35.99,0-22.84,18.52-41.36,41.36-41.36s41.36,18.52,41.36,41.36c0,15.19-8.18,28.46-20.38,35.65" fill="none" stroke="#231f20" stroke-miterlimit="10" stroke-width=".5"/>
        <line x1="62.45" y1="65.64" x2="62.45" y2="63.23" fill="none" stroke="#231f20" stroke-miterlimit="10" stroke-width=".5"/>
        <line x1="21.08" y1="104.6" x2="23.93" y2="104.6" fill="none" stroke="#231f20" stroke-miterlimit="10" stroke-width=".5"/>
        <line x1="101.32" y1="104.6" x2="103.81" y2="104.6" fill="none" stroke="#231f20" stroke-miterlimit="10" stroke-width=".5"/>
        <line x1="89.68" y1="131.99" x2="91.56" y2="133.87" fill="none" stroke="#231f20" stroke-miterlimit="10" stroke-width=".5"/>
        <line x1="40.85" y1="142.74" x2="42.13" y2="140.49" fill="none" stroke="#231f20" stroke-miterlimit="10" stroke-width=".5"/>
        <line x1="84.64" y1="142.52" x2="83.27" y2="140.2" fill="none" stroke="#231f20" stroke-miterlimit="10" stroke-width=".5"/>
      </g>
      <g>
        <path d="M53.43,176.58c-2.25-2.27-3.64-5.4-3.64-8.85,0-6.95,5.63-12.59,12.59-12.59s12.59,5.63,12.59,12.59c0,3.44-1.38,6.55-3.61,8.82" fill="none" stroke="#231f20" stroke-miterlimit="10" stroke-width=".5"/>
        <line x1="49.79" y1="167.63" x2="51.52" y2="167.63" fill="none" stroke="#231f20" stroke-miterlimit="10" stroke-width=".5"/>
        <line x1="53.54" y1="158.74" x2="54.77" y2="159.97" fill="none" stroke="#231f20" stroke-miterlimit="10" stroke-width=".5"/>
        <line x1="73.24" y1="167.63" x2="74.94" y2="167.63" fill="none" stroke="#231f20" stroke-miterlimit="10" stroke-width=".5"/>
        <line x1="70" y1="159.99" x2="71.22" y2="158.78" fill="none" stroke="#231f20" stroke-miterlimit="10" stroke-width=".5"/>
        <line x1="53.32" y1="176.69" x2="54.66" y2="175.34" fill="none" stroke="#231f20" stroke-miterlimit="10" stroke-width=".5"/>
        <line x1="62.43" y1="156.86" x2="62.43" y2="155.15" fill="none" stroke="#231f20" stroke-miterlimit="10" stroke-width=".5"/>
        <line x1="70.13" y1="175.33" x2="71.46" y2="176.66" fill="none" stroke="#231f20" stroke-miterlimit="10" stroke-width=".5"/>
      </g>
      <g>
        <path d="M15.7,176.58c-2.25-2.27-3.64-5.4-3.64-8.85,0-6.95,5.63-12.59,12.59-12.59s12.59,5.63,12.59,12.59c0,3.44-1.38,6.55-3.61,8.82" fill="none" stroke="#231f20" stroke-miterlimit="10" stroke-width=".5"/>
        <line x1="12.06" y1="167.63" x2="13.79" y2="167.63" fill="none" stroke="#231f20" stroke-miterlimit="10" stroke-width=".5"/>
        <line x1="15.82" y1="158.74" x2="17.05" y2="159.97" fill="none" stroke="#231f20" stroke-miterlimit="10" stroke-width=".5"/>
        <line x1="35.51" y1="167.63" x2="37.21" y2="167.63" fill="none" stroke="#231f20" stroke-miterlimit="10" stroke-width=".5"/>
        <line x1="32.28" y1="159.99" x2="33.49" y2="158.78" fill="none" stroke="#231f20" stroke-miterlimit="10" stroke-width=".5"/>
        <line x1="15.59" y1="176.69" x2="16.94" y2="175.34" fill="none" stroke="#231f20" stroke-miterlimit="10" stroke-width=".5"/>
        <line x1="24.71" y1="156.86" x2="24.71" y2="155.15" fill="none" stroke="#231f20" stroke-miterlimit="10" stroke-width=".5"/>
        <line x1="32.4" y1="175.33" x2="33.73" y2="176.66" fill="none" stroke="#231f20" stroke-miterlimit="10" stroke-width=".5"/>
      </g>
      <g>
        <polyline points="16.77 313.81 18.77 311.82 20.76 313.81" fill="none" stroke="#231f20" stroke-linecap="round" stroke-linejoin="round" stroke-width=".75"/>
        <g>
          <line x1="18.79" y1="312.26" x2="18.79" y2="317.23" fill="none" stroke="#231f20" stroke-linecap="round" stroke-linejoin="round" stroke-width=".75"/>
          <circle cx="18.77" cy="314.52" r="4.91" fill="none" stroke="#231f20" stroke-miterlimit="10" stroke-width=".5"/>
        </g>
      </g>
      <g>
        <g>
          <line x1="47.79" y1="312.26" x2="47.79" y2="317.23" fill="none" stroke="#231f20" stroke-miterlimit="10" stroke-width=".5"/>
          <polyline points="45.77 313.81 47.76 311.82 49.76 313.81" fill="none" stroke="#231f20" stroke-linecap="round" stroke-linejoin="round" stroke-width=".75"/>
        </g>
        <circle cx="47.76" cy="314.52" r="4.91" fill="none" stroke="#231f20" stroke-miterlimit="10" stroke-width=".5"/>
      </g>
      <path d="M76.51,310.15c-2.57,0-4.66,2.09-4.66,4.66s2.09,4.66,4.66,4.66,4.66-2.09,4.66-4.66-2.09-4.66-4.66-4.66ZM78.77,315.79l-2,2c-.07.07-.17.11-.27.11s-.19-.04-.27-.11l-2-2c-.15-.15-.15-.38,0-.53s.38-.15.53,0l1.33,1.33v-4.49c0-.21.17-.38.38-.38s.38.17.38.38v4.54l1.38-1.38c.15-.15.38-.15.53,0s.15.38,0,.53Z" fill="#231f20"/>
      <path d="M105.73,310.15c-2.57,0-4.66,2.09-4.66,4.66s2.09,4.66,4.66,4.66,4.66-2.09,4.66-4.66-2.09-4.66-4.66-4.66ZM108,315.79l-2,2c-.07.07-.17.11-.27.11s-.19-.04-.27-.11l-2-2c-.15-.15-.15-.38,0-.53s.38-.15.53,0l1.33,1.33v-4.49c0-.21.17-.38.38-.38s.38.17.38.38v4.54l1.38-1.38c.15-.15.38-.15.53,0s.15.38,0,.53Z" fill="#231f20"/>
      <g>
        <polyline points="16.77 275.88 18.77 273.88 20.76 275.88" fill="none" stroke="#231f20" stroke-linecap="round" stroke-linejoin="round" stroke-width=".75"/>
        <g>
          <line x1="18.79" y1="274.32" x2="18.79" y2="279.3" fill="none" stroke="#231f20" stroke-linecap="round" stroke-linejoin="round" stroke-width=".75"/>
          <circle cx="18.77" cy="276.59" r="4.91" fill="none" stroke="#231f20" stroke-miterlimit="10" stroke-width=".5"/>
        </g>
      </g>
      <g>
        <g>
          <line x1="47.79" y1="274.32" x2="47.79" y2="279.3" fill="none" stroke="#231f20" stroke-linecap="round" stroke-linejoin="round" stroke-width=".75"/>
          <polyline points="45.77 275.88 47.76 273.88 49.76 275.88" fill="none" stroke="#231f20" stroke-linecap="round" stroke-linejoin="round" stroke-width=".75"/>
        </g>
        <circle cx="47.76" cy="276.59" r="4.91" fill="none" stroke="#231f20" stroke-miterlimit="10" stroke-width=".5"/>
      </g>
      <path d="M76.51,272.22c-2.57,0-4.66,2.09-4.66,4.66s2.09,4.66,4.66,4.66,4.66-2.09,4.66-4.66-2.09-4.66-4.66-4.66ZM78.77,277.86l-2,2c-.07.07-.17.11-.27.11s-.19-.04-.27-.11l-2-2c-.15-.15-.15-.38,0-.53s.38-.15.53,0l1.33,1.33v-4.49c0-.21.17-.38.38-.38s.38.17.38.38v4.54l1.38-1.38c.15-.15.38-.15.53,0s.15.38,0,.53Z" fill="#231f20"/>
      <path d="M105.73,272.22c-2.57,0-4.66,2.09-4.66,4.66s2.09,4.66,4.66,4.66,4.66-2.09,4.66-4.66-2.09-4.66-4.66-4.66ZM108,277.86l-2,2c-.07.07-.17.11-.27.11s-.19-.04-.27-.11l-2-2c-.15-.15-.15-.38,0-.53s.38-.15.53,0l1.33,1.33v-4.49c0-.21.17-.38.38-.38s.38.17.38.38v4.54l1.38-1.38c.15-.15.38-.15.53,0s.15.38,0,.53Z" fill="#231f20"/>
      <g>
        <polyline points="16.77 236.31 18.77 234.31 20.76 236.31" fill="none" stroke="#231f20" stroke-linecap="round" stroke-linejoin="round" stroke-width=".75"/>
        <g>
          <line x1="18.79" y1="234.75" x2="18.79" y2="239.73" fill="none" stroke="#231f20" stroke-linecap="round" stroke-linejoin="round" stroke-width=".75"/>
          <circle cx="18.77" cy="237.02" r="4.91" fill="none" stroke="#231f20" stroke-linecap="round" stroke-linejoin="round" stroke-width=".5"/>
        </g>
      </g>
      <g>
        <g>
          <line x1="47.79" y1="234.75" x2="47.79" y2="239.73" fill="none" stroke="#231f20" stroke-linecap="round" stroke-linejoin="round" stroke-width=".75"/>
          <polyline points="45.77 236.31 47.76 234.31 49.76 236.31" fill="none" stroke="#231f20" stroke-linecap="round" stroke-linejoin="round" stroke-width=".75"/>
        </g>
        <circle cx="47.76" cy="237.02" r="4.91" fill="none" stroke="#231f20" stroke-miterlimit="10" stroke-width=".5"/>
      </g>
      <path d="M76.51,232.65c-2.57,0-4.66,2.09-4.66,4.66s2.09,4.66,4.66,4.66,4.66-2.09,4.66-4.66-2.09-4.66-4.66-4.66ZM78.77,238.28l-2,2c-.07.07-.17.11-.27.11s-.19-.04-.27-.11l-2-2c-.15-.15-.15-.38,0-.53s.38-.15.53,0l1.33,1.33v-4.49c0-.21.17-.38.38-.38s.38.17.38.38v4.54l1.38-1.38c.15-.15.38-.15.53,0s.15.38,0,.53Z" fill="#231f20"/>
      <path d="M105.73,232.65c-2.57,0-4.66,2.09-4.66,4.66s2.09,4.66,4.66,4.66,4.66-2.09,4.66-4.66-2.09-4.66-4.66-4.66ZM108,238.28l-2,2c-.07.07-.17.11-.27.11s-.19-.04-.27-.11l-2-2c-.15-.15-.15-.38,0-.53s.38-.15.53,0l1.33,1.33v-4.49c0-.21.17-.38.38-.38s.38.17.38.38v4.54l1.38-1.38c.15-.15.38-.15.53,0s.15.38,0,.53Z" fill="#231f20"/>
      <g>
        <rect x="54.49" y="386.81" width="3.39" height="2.83" transform="translate(-332.04 444.4) rotate(-90)" fill="#231f20"/>
        <rect x="58.38" y="386.81" width="3.39" height="2.83" transform="translate(-328.15 448.29) rotate(-90)" fill="#231f20"/>
        <rect x="62.27" y="386.81" width="3.39" height="2.83" transform="translate(-324.26 452.18) rotate(-90)" fill="#231f20"/>
        <rect x="65.77" y="387.19" width="4.16" height="2.83" transform="translate(-320.76 456.46) rotate(-90)" fill="#231f20"/>
        <rect x="70.05" y="386.81" width="3.39" height="2.83" transform="translate(-316.48 459.97) rotate(-90)" fill="#231f20"/>
        <rect x="73.94" y="386.81" width="3.39" height="2.83" transform="translate(-312.59 463.86) rotate(-90)" fill="#231f20"/>
        <rect x="77.83" y="386.81" width="3.39" height="2.83" transform="translate(-308.7 467.75) rotate(-90)" fill="#231f20"/>
        <rect x="81.34" y="387.19" width="4.16" height="2.83" transform="translate(-305.19 472.02) rotate(-90)" fill="#231f20"/>
      </g>
      <text transform="translate(54.29 400.39) scale(1.07 1)" fill="#231f20" font-family="HelveticaNeue-CondensedBold, &apos;Helvetica Neue&apos;" font-size="8.66" font-weight="700"><tspan x="0" y="0">Workshop System</tspan></text>
      <text/>
      <circle cx="62.44" cy="104.45" r="10.2" transform="translate(-45.59 48.42) rotate(-31.72)" fill="#231f20"/>
      <rect x="6.64" y="49.25" width=".24" height="364.32" fill="#a7a9ab"/>
      <rect x="11.2" y="325.25" width=".24" height="16.32" fill="#a7a9ab"/>
      <rect x="21.28" y="325.25" width=".24" height="16.32" fill="#a7a9ab"/>
      <path d="M16.48,346.91c-2.88,0-5.22-2.34-5.22-5.22h.24c0,2.75,2.24,4.98,4.98,4.98s4.98-2.24,4.98-4.98h.24c0,2.88-2.34,5.22-5.22,5.22Z" fill="#a7a9ab"/>
      <path d="M21.7,325.37h-.24c0-2.75-2.23-4.98-4.98-4.98s-4.98,2.24-4.98,4.98h-.24c0-2.88,2.34-5.22,5.22-5.22s5.22,2.34,5.22,5.22Z" fill="#a7a9ab"/>
      <rect x="53.08" y="384.41" width="38.16" height=".24" fill="#a7a9ab"/>
      <rect x="52.96" y="376.61" width=".24" height="7.92" fill="#a7a9ab"/>
      <rect x="53.08" y="376.49" width="38.16" height=".24" fill="#a7a9ab"/>
      <rect x="91.12" y="376.61" width=".24" height="7.92" fill="#a7a9ab"/>
      <circle cx="13.48" cy="384.53" r="4.44" fill="#e52629"/>
      <circle cx="13.48" cy="358.61" r="4.44" fill="#e52629"/>
      <circle cx="26.68" cy="384.53" r="4.44" fill="#e52629"/>
      <circle cx="28.12" cy="404.93" r="4.68" transform="translate(-372.44 339.26) rotate(-76.72)" fill="#a7a9ab"/>
      <circle cx="106.36" cy="382.13" r="5.16" fill="#a7a9ab"/>
      <circle cx="13.48" cy="371.57" r="4.44" fill="#e52629"/>
      <circle cx="26.68" cy="358.61" r="4.44" fill="#e52629"/>
      <circle cx="26.68" cy="371.57" r="4.44" fill="#e52629"/>
      <circle cx="28.12" cy="57.65" r="4.68" fill="#a7a9ab"/>
      <circle cx="88.36" cy="91.73" r="5.16" transform="translate(-18.43 161.14) rotate(-79.1)" fill="#a7a9ab"/>
      <circle cx="76.84" cy="217.25" r="8.76" fill="none" stroke="#808386" stroke-miterlimit="10"/>
      <circle cx="105.64" cy="296.45" r="8.76" fill="none" stroke="#808386" stroke-miterlimit="10"/>
      <circle cx="76.84" cy="256.85" r="8.76" transform="translate(-189.86 229.55) rotate(-67.5)" fill="none" stroke="#808386" stroke-miterlimit="10"/>
      <circle cx="105.64" cy="256.85" r="8.76" transform="translate(-166.55 312.01) rotate(-79.1)" fill="none" stroke="#808386" stroke-miterlimit="10"/>
      <circle cx="105.64" cy="217.25" r="8.76" fill="none" stroke="#808386" stroke-miterlimit="10"/>
      <circle cx="76.84" cy="296.45" r="8.76" fill="none" stroke="#808386" stroke-miterlimit="10"/>
      <circle cx="100.12" cy="167.81" r="7.32" fill="none" stroke="#939599" stroke-miterlimit="10"/>
      <circle cx="19.24" cy="256.85" r="8.76" transform="translate(-232.16 200.83) rotate(-73.15)" fill="none" stroke="#808386" stroke-miterlimit="10"/>
      <circle cx="48.04" cy="296.45" r="8.76" fill="none" stroke="#808386" stroke-miterlimit="10"/>
      <circle cx="19.24" cy="217.25" r="8.76" fill="none" stroke="#808386" stroke-miterlimit="10"/>
      <circle cx="19.24" cy="296.45" r="8.76" fill="none" stroke="#808386" stroke-miterlimit="10"/>
      <circle cx="48.04" cy="256.85" r="8.76" transform="translate(-211.71 228.39) rotate(-73.15)" fill="none" stroke="#808386" stroke-miterlimit="10"/>
      <circle cx="48.04" cy="217.25" r="8.76" fill="none" stroke="#808386" stroke-miterlimit="10"/>
      <path d="M15.68,336.67c.01.27.31-.43.33-.02.05,1.05,1.98,2.91,2.03,3.9,1.15,21.91,72.67-20.87,73.59-3.32,1.04,19.87-78.01-12.88-76.81,8.34,1.71,30.22,114.52-38.19,116.2-6.09,1.55,29.55-136.44-42.65-120.16,7.86,8.79,27.27,109.73-54.87,112.47-2.53,2.39,45.69-104-32.74-115.18,14.33-14.03,59.07,116.17-34.83,117.67-6.17,2.4,45.7-123.85-24.29-118.01,7.69,4.05,22.13,119.75-38.87,121.64-2.77,2.65,50.54-121.72-44.25-110.57,12.09,5.69,28.76,108.32-30.66,109.92-5.55,1.85,29.15-92.69-10.64-94.11,12.33-2.16,34.81,95.22-41.58,97.23-5.85,2.45,43.58-123.71-13.36-123.92,13.01s102.9-25.37,106.56-4.54c5.63,32.05-99.92-22.61-95.03,8.82,3.94,25.33,117.91-49.58,111.52-4.4-3.57,25.23-84.76-12.8-83.28,3.97.76,8.54,56,2.89,60.13,1.54" fill="none" stroke="#e7e8e9" stroke-linecap="round" stroke-linejoin="round" stroke-width=".36"/>
      <text></text>
      <text transform="translate(54.29 409.05) scale(1.07 1)" fill="#fff" font-family="HelveticaNeue-CondensedBold, &apos;Helvetica Neue&apos;" font-size="8.66" font-weight="700"><tspan x="0" y="0">Music Thing Modular</tspan></text>
      <text transform="translate(46.02 200.56)" fill="#d4af37" font-family="URWDIN-Demi, &apos;URW DIN&apos;" font-size="7" font-weight="300"><tspan x="0" y="0">CV / Audio</tspan></text>
      <text transform="translate(51.76 326.2)" fill="#d4af37" font-family="URWDIN-Demi, &apos;URW DIN&apos;" font-size="7" font-weight="300"><tspan x="0" y="0">Pulses</tspan></text>
      <text transform="translate(57.97 279.15)" fill="#d4af37" font-family="URWDIN-Demi, &apos;URW DIN&apos;" font-size="7" font-weight="300"><tspan x="0" y="0">CV</tspan></text>
      <circle cx="62.44" cy="104.45" r="10.2" transform="translate(-45.59 48.42) rotate(-31.72)" fill="#fff"/>
      <rect x="53.06" y="376.73" width="38.18" height="7.81" fill="#414142"/>
      <g>
        <rect x="21.64" y="164.93" width="5.76" height="5.76" fill="#fff"/>
        <g clip-path="url(#clippath)">
          <path d="M26.92,167.81c0,3.2-4.8,3.2-4.8,0s4.8-3.2,4.8,0Z" fill="#010101"/>
        </g>
      </g>
      <g>
        <rect x="59.56" y="164.93" width="5.76" height="5.76" fill="#fff"/>
        <g clip-path="url(#clippath-1)">
          <path d="M64.84,167.81c0,3.2-4.8,3.2-4.8,0s4.8-3.2,4.8,0Z" fill="#010101"/>
        </g>
      </g>
      <g>
        <rect x="59.56" y="101.57" width="5.76" height="5.76" fill="#fff"/>
        <g clip-path="url(#clippath-2)">
          <path d="M64.84,104.45c0,3.2-4.8,3.2-4.8,0s4.8-3.2,4.8,0Z" fill="#010101"/>
        </g>
      </g>
    </g>
    <rect x="41.88" y="86.57" width="44.84" height="34.42" fill="#fcea10"/>
    <text transform="translate(44.69 100.38)" fill="#1d1d1b" font-family="URWDINCond-Bold, &apos;URW DIN Cond&apos;" font-size="14" font-weight="700"><tspan x="0" y="0">REVERB </tspan><tspan x="10.42" y="16.8">MIX</tspan></text>
    <rect x="10.33" y="161.23" width="27.19" height="12.8" fill="#fcea10"/>
    <text transform="translate(13.61 170.85)" fill="#1d1d1b" font-family="URWDINCond-Bold, &apos;URW DIN Cond&apos;" font-size="9" font-weight="700"><tspan x="0" y="0">DECAY</tspan></text>
    <rect x="50.7" y="161.23" width="27.19" height="12.8" fill="#fcea10"/>
    <text transform="translate(55.92 170.85)" fill="#1d1d1b" font-family="URWDINCond-Bold, &apos;URW DIN Cond&apos;" font-size="9" font-weight="700"><tspan x="0" y="0">TONE</tspan></text>
    <rect x="87.48" y="161.41" width="27.19" height="12.8" fill="#fcea10"/>
    <text transform="translate(89.37 171.02)" fill="#1d1d1b" font-family="URWDINCond-Bold, &apos;URW DIN Cond&apos;" font-size="9" font-weight="700"><tspan x="0" y="0">FREEZE</tspan></text>
    <rect x="11.05" y="210.85" width="45.74" height="12.8" fill="#fcea10"/>
    <text transform="translate(13.54 220.46)" fill="#1d1d1b" font-family="URWDINCond-Bold, &apos;URW DIN Cond&apos;" font-size="9" font-weight="700"><tspan x="0" y="0">AUDIO IN L/R</tspan></text>
    <rect x="66.81" y="210.85" width="51.16" height="12.8" fill="#fcea10"/>
    <text transform="translate(69.17 220.46)" fill="#1d1d1b" font-family="URWDINCond-Bold, &apos;URW DIN Cond&apos;" font-size="9" font-weight="700"><tspan x="0" y="0">AUDIO OUT L/R</tspan></text>
    <rect x="7.59" y="248.09" width="22.36" height="20.67" fill="#fcea10"/>
    <text transform="translate(8.45 257.13)" fill="#1d1d1b" font-family="URWDINCond-Bold, &apos;URW DIN Cond&apos;" font-size="9" font-weight="700"><tspan x="0" y="0">DECAY </tspan><tspan x="6.09" y="9">CV</tspan></text>
    <rect x="63.63" y="288.73" width="26.41" height="18.87" fill="#fcea10"/>
    <text transform="translate(66.68 296.88)" fill="#1d1d1b" font-family="URWDINCond-Bold, &apos;URW DIN Cond&apos;" font-size="9" font-weight="700"><tspan x="0" y="0">PULSE </tspan><tspan x="1.21" y="9">OUT 1</tspan></text>
    <rect x="94.23" y="288.73" width="26.41" height="18.87" fill="#fcea10"/>
    <text transform="translate(97.28 296.88)" fill="#1d1d1b" font-family="URWDINCond-Bold, &apos;URW DIN Cond&apos;" font-size="9" font-weight="700"><tspan x="0" y="0">PULSE </tspan><tspan x="1.21" y="9">OUT 2</tspan></text>
    <rect x="28.66" width="73.32" height="23.34" fill="#fcea10"/>
    <text transform="translate(31.7 20.24)" fill="#1d1d1b" font-family="URWDINCond-Bold, &apos;URW DIN Cond&apos;" font-size="24" font-weight="700"><tspan x="0" y="0">REVERB</tspan></text>
    <rect x="37.72" y="247.66" width="20.63" height="20.67" fill="#fcea10"/>
    <g>
      <path d="M42.55,250.28h1.08l1.17,3.49,1.18-3.49h1.08v6.43h-1.11v-3.87l-.78,2.5h-.73l-.78-2.5v3.87h-1.11v-6.43Z" fill="#1d1d1b"/>
      <path d="M48.1,250.28h1.16v6.43h-1.16v-6.43Z" fill="#1d1d1b"/>
      <path d="M49.98,250.28h1.26l.91,2.04.69-2.04h1.21l-1.38,3.2,1.46,3.23h-1.26l-1-2.26-.79,2.26h-1.21l1.46-3.41-1.36-3.02Z" fill="#1d1d1b"/>
      <path d="M47.74,263.78c0,.62-.09.97-.28,1.29-.31.5-.8.75-1.5.75s-1.18-.23-1.47-.66c-.22-.33-.31-.81-.31-1.58v-2.12c0-.87.11-1.36.39-1.7.3-.37.76-.55,1.38-.55.73,0,1.24.28,1.52.83.14.27.2.57.21,1.1h-1.05c-.05-.77-.2-.99-.65-.99-.49,0-.63.32-.63,1.4v1.95c0,1.06.15,1.39.65,1.39s.67-.31.69-1.1h1.06Z" fill="#1d1d1b"/>
      <path d="M48.05,259.28h1.15l.98,4.61.98-4.61h1.16l-1.63,6.43h-1.02l-1.63-6.43Z" fill="#1d1d1b"/>
    </g>
    <rect x="5.64" y="287.68" width="27.19" height="19.85" fill="#fcea10"/>
    <text transform="translate(7.53 296.31)" fill="#1d1d1b" font-family="URWDINCond-Bold, &apos;URW DIN Cond&apos;" font-size="9" font-weight="700"><tspan x="0" y="0">FREEZE</tspan><tspan x="1.55" y="9">PULSE</tspan></text>
    <rect x="65.37" y="247.66" width="27.19" height="20.67" fill="#fcea10"/>
    <text transform="translate(67.68 256.71)" fill="#1d1d1b" font-family="URWDINCond-Bold, &apos;URW DIN Cond&apos;" font-size="9" font-weight="700"><tspan x="0" y="0">CV OUT </tspan><tspan x="9.4" y="9">1</tspan></text>
    <rect x="95.9" y="247.66" width="27.19" height="20.67" fill="#fcea10"/>
    <text transform="translate(98.21 256.71)" fill="#1d1d1b" font-family="URWDINCond-Bold, &apos;URW DIN Cond&apos;" font-size="9" font-weight="700"><tspan x="0" y="0">CV OUT</tspan><tspan x="9.4" y="9">2</tspan></text>
    <rect x="34.83" y="288.16" width="26.41" height="18.87" fill="#fcea10"/>
    <text transform="translate(37.62 296.31)" fill="#1d1d1b" font-family="URWDINCond-Bold, &apos;URW DIN Cond&apos;" font-size="9" font-weight="700"><tspan x="0" y="0">CLOCK </tspan><tspan x="6.91" y="9">IN</tspan></text>
    <rect x="47.1" y="331.32" width="67.3" height="27.79" fill="#fcea10"/>
    <text transform="translate(50.74 342.79)" fill="#1d1d1b" font-family="URWDINCond-Bold, &apos;URW DIN Cond&apos;" font-size="10" font-weight="700"><tspan x="0" y="0">CV Outs assigned </tspan><tspan x=".77" y="12">in the web editor</tspan></text>
  </g>
</svg>