<?xml version="1.0" encoding="UTF-8"?>
<svg xmlns="http://www.w3.org/2000/svg" width="53.67mm" height="145.9mm" xmlns:xlink="http://www.w3.org/1999/xlink" version="1.1" viewBox="0 0 152.12 413.57">
  <!-- Generator: Adobe Illustrator 29.2.1, SVG Export Plug-In . SVG Version: 2.1.0 Build 116)  -->
  <defs>
    <clipPath id="clippath">
      <rect x="27.87" y="164.93" width="5.76" height="5.76" fill="#fff"/>
    </clipPath>
    <clipPath id="clippath-1">
      <rect x="65.79" y="164.93" width="5.76" height="5.76" fill="#fff"/>
    </clipPath>
    <clipPath id="clippath-2">
      <rect x="65.79" y="101.57" width="5.76" height="5.76" fill="#fff"/>
    </clipPath>
  </defs>
  <g id="Layer_2">
    <polygon points="13.11 413.57 13.11 49.25 126.06 49.25 126.06 309.63 138.98 327.66 138.98 413.56 13.11 413.57" fill="#dadada"/>
  </g>
  <g id="Layer_1">
    <g>
      <text transform="translate(104.78 185.41)" fill="#231f20" font-family="URWDIN-Medium, &apos;URW DIN&apos;" font-size="7" font-weight="500"><tspan x="0" y="0">Z</tspan></text>
      <text transform="translate(28.94 185.41)" fill="#231f20" font-family="URWDIN-Medium, &apos;URW DIN&apos;" font-size="7" font-weight="500"><tspan x="0" y="0">X</tspan></text>
      <text transform="translate(66.71 185.41)" fill="#231f20" font-family="URWDIN-Medium, &apos;URW DIN&apos;" font-size="7" font-weight="500"><tspan x="0" y="0">Y</tspan></text>
      <text transform="translate(49.32 59.3)" fill="#231f20" font-family="URWDIN-Medium, &apos;URW DIN&apos;" font-size="9" font-weight="500"><tspan x="0" y="0">Computer</tspan></text>
      <rect x="12.7" y="49.04" width=".28" height=".28" fill="#231f20"/>
      <g>
        <line x1="39.4" y1="75.5" x2="41.28" y2="77.37" fill="none" stroke="#231f20" stroke-miterlimit="10" stroke-width=".5"/>
        <line x1="96.21" y1="77.04" x2="97.9" y2="75.35" fill="none" stroke="#231f20" stroke-miterlimit="10" stroke-width=".5"/>
        <line x1="39.45" y1="133.69" x2="41.15" y2="131.99" fill="none" stroke="#231f20" stroke-miterlimit="10" stroke-width=".5"/>
        <path d="M48.28,140.59c-12.52-7.11-20.96-20.57-20.96-35.99,0-22.84,18.52-41.36,41.36-41.36s41.36,18.52,41.36,41.36c0,15.19-8.18,28.46-20.38,35.65" fill="none" stroke="#231f20" stroke-miterlimit="10" stroke-width=".5"/>
        <line x1="68.68" y1="65.64" x2="68.68" y2="63.23" fill="none" stroke="#231f20" stroke-miterlimit="10" stroke-width=".5"/>
        <line x1="27.31" y1="104.6" x2="30.16" y2="104.6" fill="none" stroke="#231f20" stroke-miterlimit="10" stroke-width=".5"/>
        <line x1="107.55" y1="104.6" x2="110.04" y2="104.6" fill="none" stroke="#231f20" stroke-miterlimit="10" stroke-width=".5"/>
        <line x1="95.91" y1="131.99" x2="97.79" y2="133.87" fill="none" stroke="#231f20" stroke-miterlimit="10" stroke-width=".5"/>
        <line x1="47.09" y1="142.74" x2="48.36" y2="140.49" fill="none" stroke="#231f20" stroke-miterlimit="10" stroke-width=".5"/>
        <line x1="90.87" y1="142.52" x2="89.5" y2="140.2" fill="none" stroke="#231f20" stroke-miterlimit="10" stroke-width=".5"/>
      </g>
      <g>
        <path d="M59.66,176.58c-2.25-2.27-3.64-5.4-3.64-8.85,0-6.95,5.63-12.59,12.59-12.59s12.59,5.63,12.59,12.59c0,3.44-1.38,6.55-3.61,8.82" fill="none" stroke="#231f20" stroke-miterlimit="10" stroke-width=".5"/>
        <line x1="56.02" y1="167.63" x2="57.75" y2="167.63" fill="none" stroke="#231f20" stroke-miterlimit="10" stroke-width=".5"/>
        <line x1="59.77" y1="158.74" x2="61" y2="159.97" fill="none" stroke="#231f20" stroke-miterlimit="10" stroke-width=".5"/>
        <line x1="79.47" y1="167.63" x2="81.17" y2="167.63" fill="none" stroke="#231f20" stroke-miterlimit="10" stroke-width=".5"/>
        <line x1="76.23" y1="159.99" x2="77.45" y2="158.78" fill="none" stroke="#231f20" stroke-miterlimit="10" stroke-width=".5"/>
        <line x1="59.55" y1="176.69" x2="60.89" y2="175.34" fill="none" stroke="#231f20" stroke-miterlimit="10" stroke-width=".5"/>
        <line x1="68.66" y1="156.86" x2="68.66" y2="155.15" fill="none" stroke="#231f20" stroke-miterlimit="10" stroke-width=".5"/>
        <line x1="76.36" y1="175.33" x2="77.69" y2="176.66" fill="none" stroke="#231f20" stroke-miterlimit="10" stroke-width=".5"/>
      </g>
      <g>
        <path d="M21.93,176.58c-2.25-2.27-3.64-5.4-3.64-8.85,0-6.95,5.63-12.59,12.59-12.59s12.59,5.63,12.59,12.59c0,3.44-1.38,6.55-3.61,8.82" fill="none" stroke="#231f20" stroke-miterlimit="10" stroke-width=".5"/>
        <line x1="18.3" y1="167.63" x2="20.02" y2="167.63" fill="none" stroke="#231f20" stroke-miterlimit="10" stroke-width=".5"/>
        <line x1="22.05" y1="158.74" x2="23.28" y2="159.97" fill="none" stroke="#231f20" stroke-miterlimit="10" stroke-width=".5"/>
        <line x1="41.74" y1="167.63" x2="43.45" y2="167.63" fill="none" stroke="#231f20" stroke-miterlimit="10" stroke-width=".5"/>
        <line x1="38.51" y1="159.99" x2="39.72" y2="158.78" fill="none" stroke="#231f20" stroke-miterlimit="10" stroke-width=".5"/>
        <line x1="21.82" y1="176.69" x2="23.17" y2="175.34" fill="none" stroke="#231f20" stroke-miterlimit="10" stroke-width=".5"/>
        <line x1="30.94" y1="156.86" x2="30.94" y2="155.15" fill="none" stroke="#231f20" stroke-miterlimit="10" stroke-width=".5"/>
        <line x1="38.63" y1="175.33" x2="39.96" y2="176.66" fill="none" stroke="#231f20" stroke-miterlimit="10" stroke-width=".5"/>
      </g>
      <g>
        <polyline points="23 313.81 25 311.82 26.99 313.81" fill="none" stroke="#231f20" stroke-linecap="round" stroke-linejoin="round" stroke-width=".75"/>
        <g>
          <line x1="25.02" y1="312.26" x2="25.02" y2="317.23" fill="none" stroke="#231f20" stroke-linecap="round" stroke-linejoin="round" stroke-width=".75"/>
          <circle cx="25" cy="314.52" r="4.91" fill="none" stroke="#231f20" stroke-miterlimit="10" stroke-width=".5"/>
        </g>
      </g>
      <g>
        <g>
          <line x1="54.02" y1="312.26" x2="54.02" y2="317.23" fill="none" stroke="#231f20" stroke-miterlimit="10" stroke-width=".5"/>
          <polyline points="52 313.81 53.99 311.82 55.99 313.81" fill="none" stroke="#231f20" stroke-linecap="round" stroke-linejoin="round" stroke-width=".75"/>
        </g>
        <circle cx="53.99" cy="314.52" r="4.91" fill="none" stroke="#231f20" stroke-miterlimit="10" stroke-width=".5"/>
      </g>
      <path d="M82.74,310.15c-2.57,0-4.66,2.09-4.66,4.66s2.09,4.66,4.66,4.66,4.66-2.09,4.66-4.66-2.09-4.66-4.66-4.66ZM85,315.79l-2,2c-.07.07-.17.11-.27.11s-.19-.04-.27-.11l-2-2c-.15-.15-.15-.38,0-.53s.38-.15.53,0l1.33,1.33v-4.49c0-.21.17-.38.38-.38s.38.17.38.38v4.54l1.38-1.38c.15-.15.38-.15.53,0s.15.38,0,.53Z" fill="#231f20"/>
      <path d="M111.97,310.15c-2.57,0-4.66,2.09-4.66,4.66s2.09,4.66,4.66,4.66,4.66-2.09,4.66-4.66-2.09-4.66-4.66-4.66ZM114.23,315.79l-2,2c-.07.07-.17.11-.27.11s-.19-.04-.27-.11l-2-2c-.15-.15-.15-.38,0-.53s.38-.15.53,0l1.33,1.33v-4.49c0-.21.17-.38.38-.38s.38.17.38.38v4.54l1.38-1.38c.15-.15.38-.15.53,0s.15.38,0,.53Z" fill="#231f20"/>
      <g>
        <polyline points="23 275.88 25 273.88 26.99 275.88" fill="none" stroke="#231f20" stroke-linecap="round" stroke-linejoin="round" stroke-width=".75"/>
        <g>
          <line x1="25.02" y1="274.32" x2="25.02" y2="279.3" fill="none" stroke="#231f20" stroke-linecap="round" stroke-linejoin="round" stroke-width=".75"/>
          <circle cx="25" cy="276.59" r="4.91" fill="none" stroke="#231f20" stroke-miterlimit="10" stroke-width=".5"/>
        </g>
      </g>
      <g>
        <g>
          <line x1="54.02" y1="274.32" x2="54.02" y2="279.3" fill="none" stroke="#231f20" stroke-linecap="round" stroke-linejoin="round" stroke-width=".75"/>
          <polyline points="52 275.88 53.99 273.88 55.99 275.88" fill="none" stroke="#231f20" stroke-linecap="round" stroke-linejoin="round" stroke-width=".75"/>
        </g>
        <circle cx="53.99" cy="276.59" r="4.91" fill="none" stroke="#231f20" stroke-miterlimit="10" stroke-width=".5"/>
      </g>
      <path d="M82.74,272.22c-2.57,0-4.66,2.09-4.66,4.66s2.09,4.66,4.66,4.66,4.66-2.09,4.66-4.66-2.09-4.66-4.66-4.66ZM85,277.86l-2,2c-.07.07-.17.11-.27.11s-.19-.04-.27-.11l-2-2c-.15-.15-.15-.38,0-.53s.38-.15.53,0l1.33,1.33v-4.49c0-.21.17-.38.38-.38s.38.17.38.38v4.54l1.38-1.38c.15-.15.38-.15.53,0s.15.38,0,.53Z" fill="#231f20"/>
      <path d="M111.97,272.22c-2.57,0-4.66,2.09-4.66,4.66s2.09,4.66,4.66,4.66,4.66-2.09,4.66-4.66-2.09-4.66-4.66-4.66ZM114.23,277.86l-2,2c-.07.07-.17.11-.27.11s-.19-.04-.27-.11l-2-2c-.15-.15-.15-.38,0-.53s.38-.15.53,0l1.33,1.33v-4.49c0-.21.17-.38.38-.38s.38.17.38.38v4.54l1.38-1.38c.15-.15.38-.15.53,0s.15.38,0,.53Z" fill="#231f20"/>
      <g>
        <polyline points="23 236.31 25 234.31 26.99 236.31" fill="none" stroke="#231f20" stroke-linecap="round" stroke-linejoin="round" stroke-width=".75"/>
        <g>
          <line x1="25.02" y1="234.75" x2="25.02" y2="239.73" fill="none" stroke="#231f20" stroke-linecap="round" stroke-linejoin="round" stroke-width=".75"/>
          <circle cx="25" cy="237.02" r="4.91" fill="none" stroke="#231f20" stroke-linecap="round" stroke-linejoin="round" stroke-width=".5"/>
        </g>
      </g>
      <g>
        <g>
          <line x1="54.02" y1="234.75" x2="54.02" y2="239.73" fill="none" stroke="#231f20" stroke-linecap="round" stroke-linejoin="round" stroke-width=".75"/>
          <polyline points="52 236.31 53.99 234.31 55.99 236.31" fill="none" stroke="#231f20" stroke-linecap="round" stroke-linejoin="round" stroke-width=".75"/>
        </g>
        <circle cx="53.99" cy="237.02" r="4.91" fill="none" stroke="#231f20" stroke-miterlimit="10" stroke-width=".5"/>
      </g>
      <path d="M82.74,232.65c-2.57,0-4.66,2.09-4.66,4.66s2.09,4.66,4.66,4.66,4.66-2.09,4.66-4.66-2.09-4.66-4.66-4.66ZM85,238.28l-2,2c-.07.07-.17.11-.27.11s-.19-.04-.27-.11l-2-2c-.15-.15-.15-.38,0-.53s.38-.15.53,0l1.33,1.33v-4.49c0-.21.17-.38.38-.38s.38.17.38.38v4.54l1.38-1.38c.15-.15.38-.15.53,0s.15.38,0,.53Z" fill="#231f20"/>
      <path d="M111.97,232.65c-2.57,0-4.66,2.09-4.66,4.66s2.09,4.66,4.66,4.66,4.66-2.09,4.66-4.66-2.09-4.66-4.66-4.66ZM114.23,238.28l-2,2c-.07.07-.17.11-.27.11s-.19-.04-.27-.11l-2-2c-.15-.15-.15-.38,0-.53s.38-.15.53,0l1.33,1.33v-4.49c0-.21.17-.38.38-.38s.38.17.38.38v4.54l1.38-1.38c.15-.15.38-.15.53,0s.15.38,0,.53Z" fill="#231f20"/>
      <g>
        <rect x="60.72" y="386.81" width="3.39" height="2.83" transform="translate(-325.81 450.64) rotate(-90)" fill="#231f20"/>
        <rect x="64.61" y="386.81" width="3.39" height="2.83" transform="translate(-321.92 454.53) rotate(-90)" fill="#231f20"/>
        <rect x="68.5" y="386.81" width="3.39" height="2.83" transform="translate(-318.03 458.42) rotate(-90)" fill="#231f20"/>
        <rect x="72" y="387.19" width="4.16" height="2.83" transform="translate(-314.52 462.69) rotate(-90)" fill="#231f20"/>
        <rect x="76.28" y="386.81" width="3.39" height="2.83" transform="translate(-310.25 466.2) rotate(-90)" fill="#231f20"/>
        <rect x="80.17" y="386.81" width="3.39" height="2.83" transform="translate(-306.36 470.09) rotate(-90)" fill="#231f20"/>
        <rect x="84.06" y="386.81" width="3.39" height="2.83" transform="translate(-302.47 473.98) rotate(-90)" fill="#231f20"/>
        <rect x="87.57" y="387.19" width="4.16" height="2.83" transform="translate(-298.96 478.25) rotate(-90)" fill="#231f20"/>
      </g>
      <text transform="translate(60.53 400.39) scale(1.07 1)" fill="#231f20" font-family="HelveticaNeue-CondensedBold, &apos;Helvetica Neue&apos;" font-size="8.66" font-weight="700"><tspan x="0" y="0">Workshop System</tspan></text>
      <text/>
      <circle cx="68.67" cy="104.45" r="10.2" transform="translate(-44.66 51.7) rotate(-31.72)" fill="#231f20"/>
      <rect x="12.87" y="49.25" width=".24" height="364.32" fill="#a7a9ab"/>
      <rect x="17.43" y="325.25" width=".24" height="16.32" fill="#a7a9ab"/>
      <rect x="27.51" y="325.25" width=".24" height="16.32" fill="#a7a9ab"/>
      <path d="M22.71,346.91c-2.88,0-5.22-2.34-5.22-5.22h.24c0,2.75,2.24,4.98,4.98,4.98s4.98-2.24,4.98-4.98h.24c0,2.88-2.34,5.22-5.22,5.22Z" fill="#a7a9ab"/>
      <path d="M27.93,325.37h-.24c0-2.75-2.23-4.98-4.98-4.98s-4.98,2.24-4.98,4.98h-.24c0-2.88,2.34-5.22,5.22-5.22s5.22,2.34,5.22,5.22Z" fill="#a7a9ab"/>
      <rect x="59.31" y="384.41" width="38.16" height=".24" fill="#a7a9ab"/>
      <rect x="59.19" y="376.61" width=".24" height="7.92" fill="#a7a9ab"/>
      <rect x="59.31" y="376.49" width="38.16" height=".24" fill="#a7a9ab"/>
      <rect x="97.35" y="376.61" width=".24" height="7.92" fill="#a7a9ab"/>
      <circle cx="19.71" cy="384.53" r="4.44" fill="#e52629"/>
      <circle cx="19.71" cy="358.61" r="4.44" fill="#e52629"/>
      <circle cx="32.91" cy="384.53" r="4.44" fill="#e52629"/>
      <circle cx="34.35" cy="404.93" r="4.68" transform="translate(-367.64 345.32) rotate(-76.72)" fill="#a7a9ab"/>
      <circle cx="112.59" cy="382.13" r="5.16" fill="#a7a9ab"/>
      <circle cx="19.71" cy="371.57" r="4.44" fill="#e52629"/>
      <circle cx="32.91" cy="358.61" r="4.44" fill="#e52629"/>
      <circle cx="32.91" cy="371.57" r="4.44" fill="#e52629"/>
      <circle cx="34.35" cy="57.65" r="4.68" fill="#a7a9ab"/>
      <circle cx="94.59" cy="91.73" r="5.16" transform="translate(-13.37 167.26) rotate(-79.1)" fill="#a7a9ab"/>
      <circle cx="83.07" cy="217.25" r="8.76" fill="none" stroke="#808386" stroke-miterlimit="10"/>
      <circle cx="111.87" cy="296.45" r="8.76" fill="none" stroke="#808386" stroke-miterlimit="10"/>
      <circle cx="83.07" cy="256.85" r="8.76" transform="translate(-186.02 235.3) rotate(-67.5)" fill="none" stroke="#808386" stroke-miterlimit="10"/>
      <circle cx="111.87" cy="256.85" r="8.76" transform="translate(-161.5 318.13) rotate(-79.1)" fill="none" stroke="#808386" stroke-miterlimit="10"/>
      <circle cx="111.87" cy="217.25" r="8.76" fill="none" stroke="#808386" stroke-miterlimit="10"/>
      <circle cx="83.07" cy="296.45" r="8.76" fill="none" stroke="#808386" stroke-miterlimit="10"/>
      <circle cx="106.35" cy="167.81" r="7.32" fill="none" stroke="#939599" stroke-miterlimit="10"/>
      <circle cx="25.47" cy="256.85" r="8.76" transform="translate(-227.74 206.79) rotate(-73.15)" fill="none" stroke="#808386" stroke-miterlimit="10"/>
      <circle cx="54.27" cy="296.45" r="8.76" fill="none" stroke="#808386" stroke-miterlimit="10"/>
      <circle cx="25.47" cy="217.25" r="8.76" fill="none" stroke="#808386" stroke-miterlimit="10"/>
      <circle cx="25.47" cy="296.45" r="8.76" fill="none" stroke="#808386" stroke-miterlimit="10"/>
      <circle cx="54.27" cy="256.85" r="8.76" transform="translate(-207.29 234.36) rotate(-73.15)" fill="none" stroke="#808386" stroke-miterlimit="10"/>
      <circle cx="54.27" cy="217.25" r="8.76" fill="none" stroke="#808386" stroke-miterlimit="10"/>
      <path d="M21.91,336.67c.01.27.31-.43.33-.02.05,1.05,1.98,2.91,2.03,3.9,1.15,21.91,72.67-20.87,73.59-3.32,1.04,19.87-78.01-12.88-76.81,8.34,1.71,30.22,114.52-38.19,116.2-6.09,1.55,29.55-136.44-42.65-120.16,7.86,8.79,27.27,109.73-54.87,112.47-2.53,2.39,45.69-104-32.74-115.18,14.33-14.03,59.07,116.17-34.83,117.67-6.17,2.4,45.7-123.85-24.29-118.01,7.69,4.05,22.13,119.75-38.87,121.64-2.77,2.65,50.54-121.72-44.25-110.57,12.09,5.69,28.76,108.32-30.66,109.92-5.55,1.85,29.15-92.69-10.64-94.11,12.33-2.16,34.81,95.22-41.58,97.23-5.85,2.45,43.58-123.71-13.36-123.92,13.01-.22,27.4,102.9-25.37,106.56-4.54,5.63,32.05-99.92-22.61-95.03,8.82,3.94,25.33,117.91-49.58,111.52-4.4-3.57,25.23-84.76-12.8-83.28,3.97.76,8.54,56,2.89,60.13,1.54" fill="none" stroke="#e7e8e9" stroke-linecap="round" stroke-linejoin="round" stroke-width=".36"/>
      <text></text>
      <text transform="translate(60.53 409.05) scale(1.07 1)" fill="#fff" font-family="HelveticaNeue-CondensedBold, &apos;Helvetica Neue&apos;" font-size="8.66" font-weight="700"><tspan x="0" y="0">Music Thing Modular</tspan></text>
      <text transform="translate(52.25 200.56)" fill="#d4af37" font-family="URWDIN-Demi, &apos;URW DIN&apos;" font-size="7" font-weight="300"><tspan x="0" y="0">CV / Audio</tspan></text>
      <text transform="translate(57.99 326.2)" fill="#d4af37" font-family="URWDIN-Demi, &apos;URW DIN&apos;" font-size="7" font-weight="300"><tspan x="0" y="0">Pulses</tspan></text>
      <text transform="translate(64.2 279.15)" fill="#d4af37" font-family="URWDIN-Demi, &apos;URW DIN&apos;" font-size="7" font-weight="300"><tspan x="0" y="0">CV</tspan></text>
      <circle cx="68.67" cy="104.45" r="10.2" transform="translate(-44.66 51.7) rotate(-31.72)" fill="#fff"/>
      <rect x="59.29" y="376.73" width="38.18" height="7.81" fill="#414142"/>
      <g>
        <rect x="27.87" y="164.93" width="5.76" height="5.76" fill="#fff"/>
        <g clip-path="url(#clippath)">
          <path d="M33.15,167.81c0,3.2-4.8,3.2-4.8,0s4.8-3.2,4.8,0Z" fill="#010101"/>
        </g>
      </g>
      <g>
        <rect x="65.79" y="164.93" width="5.76" height="5.76" fill="#fff"/>
        <g clip-path="url(#clippath-1)">
          <path d="M71.07,167.81c0,3.2-4.8,3.2-4.8,0s4.8-3.2,4.8,0Z" fill="#010101"/>
        </g>
      </g>
      <g>
        <rect x="65.79" y="101.57" width="5.76" height="5.76" fill="#fff"/>
        <g clip-path="url(#clippath-2)">
          <path d="M71.07,104.45c0,3.2-4.8,3.2-4.8,0s4.8-3.2,4.8,0Z" fill="#010101"/>
        </g>
      </g>
    </g>
    <rect x="48.11" y="86.57" width="44.84" height="34.42" fill="#009fe3"/>
    <text transform="translate(56.99 108.78)" fill="#1d1d1b" font-family="URWDINCond-Bold, &apos;URW DIN Cond&apos;" font-size="14" font-weight="700"><tspan x="0" y="0">CC 34</tspan></text>
    <rect x="16.56" y="161.23" width="27.19" height="12.8" fill="#009fe3"/>
    <text transform="translate(21.45 170.85)" fill="#1d1d1b" font-family="URWDINCond-Bold, &apos;URW DIN Cond&apos;" font-size="9" font-weight="700"><tspan x="0" y="0">CC 35</tspan></text>
    <rect x="56.94" y="161.23" width="27.19" height="12.8" fill="#009fe3"/>
    <text transform="translate(61.83 170.85)" fill="#1d1d1b" font-family="URWDINCond-Bold, &apos;URW DIN Cond&apos;" font-size="9" font-weight="700"><tspan x="0" y="0">CC 36</tspan></text>
    <rect x="73.04" y="210.85" width="21.6" height="12.8" fill="#fcea10"/>
    <text transform="translate(75.14 220.46)" fill="#1d1d1b" font-family="URWDINCond-Bold, &apos;URW DIN Cond&apos;" font-size="9" font-weight="700"><tspan x="0" y="0">CC 42</tspan></text>
    <rect x="69.86" y="287.69" width="26.41" height="18.87" fill="#fcea10"/>
    <text transform="translate(74.69 295.84)" fill="#1d1d1b" font-family="URWDINCond-Bold, &apos;URW DIN Cond&apos;" font-size="9" font-weight="700"><tspan x="0" y="0">NOTE </tspan><tspan x="-3.65" y="9">ON/OFF</tspan></text>
    <rect x="34.89" width="73.32" height="23.34" fill="#fcea10"/>
    <text transform="translate(52.25 20.24)" fill="#1d1d1b" font-family="URWDINCond-Bold, &apos;URW DIN Cond&apos;" font-size="24" font-weight="700"><tspan x="0" y="0">MIDI</tspan></text>
    <polygon points="58.54 43.17 36.12 43.17 13.7 43.17 13.7 29.21 58.54 29.21 58.54 43.17" fill="#009fe3"/>
    <text transform="translate(26.55 39.76)" fill="#1d1d1b" font-family="URWDINCond-Bold, &apos;URW DIN Cond&apos;" font-size="10" font-weight="700"><tspan x="0" y="0">SEND</tspan></text>
    <rect x="77.27" y="29.21" width="50.09" height="13.96" fill="#fcea10"/>
    <text transform="translate(87.47 39.76)" fill="#1d1d1b" font-family="URWDINCond-Bold, &apos;URW DIN Cond&apos;" font-size="10" font-weight="700"><tspan x="0" y="0">RECEIVE</tspan></text>
    <rect x="92.75" y="161.23" width="27.19" height="12.8" fill="#009fe3"/>
    <text transform="translate(97.65 170.85)" fill="#1d1d1b" font-family="URWDINCond-Bold, &apos;URW DIN Cond&apos;" font-size="9" font-weight="700"><tspan x="0" y="0">CC 37</tspan></text>
    <rect x="13.72" y="210.85" width="22.89" height="12.8" fill="#009fe3"/>
    <text transform="translate(16.46 220.46)" fill="#1d1d1b" font-family="URWDINCond-Bold, &apos;URW DIN Cond&apos;" font-size="9" font-weight="700"><tspan x="0" y="0">CC 38</tspan></text>
    <rect x="42.58" y="210.85" width="22.89" height="12.8" fill="#009fe3"/>
    <text transform="translate(45.32 220.46)" fill="#1d1d1b" font-family="URWDINCond-Bold, &apos;URW DIN Cond&apos;" font-size="9" font-weight="700"><tspan x="0" y="0">CC 39</tspan></text>
    <rect x="13.58" y="250.45" width="22.89" height="12.8" fill="#009fe3"/>
    <text transform="translate(16.32 260.06)" fill="#1d1d1b" font-family="URWDINCond-Bold, &apos;URW DIN Cond&apos;" font-size="9" font-weight="700"><tspan x="0" y="0">CC 40</tspan></text>
    <rect x="42.44" y="250.45" width="22.89" height="12.8" fill="#009fe3"/>
    <text transform="translate(45.18 260.06)" fill="#1d1d1b" font-family="URWDINCond-Bold, &apos;URW DIN Cond&apos;" font-size="9" font-weight="700"><tspan x="0" y="0">CC 41</tspan></text>
    <rect x="101.07" y="210.85" width="21.6" height="12.8" fill="#fcea10"/>
    <text transform="translate(103.17 220.46)" fill="#1d1d1b" font-family="URWDINCond-Bold, &apos;URW DIN Cond&apos;" font-size="9" font-weight="700"><tspan x="0" y="0">CC 42</tspan></text>
    <rect x="71.94" y="247.19" width="21.6" height="19.32" fill="#fcea10"/>
    <text transform="translate(74.36 255.56)" fill="#1d1d1b" font-family="URWDINCond-Bold, &apos;URW DIN Cond&apos;" font-size="9" font-weight="700"><tspan x="0" y="0">NOTE </tspan><tspan x="-.92" y="9">PITCH</tspan></text>
    <rect x="100.46" y="247.19" width="21.6" height="19.32" fill="#fcea10"/>
    <text transform="translate(102.88 255.56)" fill="#1d1d1b" font-family="URWDINCond-Bold, &apos;URW DIN Cond&apos;" font-size="9" font-weight="700"><tspan x="0" y="0">NOTE </tspan><tspan x="-.92" y="9">PITCH</tspan></text>
    <rect x="98.66" y="287.69" width="26.41" height="18.87" fill="#fcea10"/>
    <text transform="translate(103.49 295.84)" fill="#1d1d1b" font-family="URWDINCond-Bold, &apos;URW DIN Cond&apos;" font-size="9" font-weight="700"><tspan x="0" y="0">NOTE </tspan><tspan x="-3.65" y="9">ON/OFF</tspan></text>
    <polygon points="94.17 201.82 83.29 206.34 72.57 201.82 72.57 189.02 94.17 189.02 94.17 201.82" fill="#fcea10"/>
    <text transform="translate(76.36 198.28)" fill="#1d1d1b" font-family="URWDINCond-Bold, &apos;URW DIN Cond&apos;" font-size="9" font-weight="700"><tspan x="0" y="0">CH 1</tspan></text>
    <polygon points="122.07 201.82 111.19 206.34 100.46 201.82 100.46 189.02 122.07 189.02 122.07 201.82" fill="#fcea10"/>
    <text transform="translate(104.25 198.28)" fill="#1d1d1b" font-family="URWDINCond-Bold, &apos;URW DIN Cond&apos;" font-size="9" font-weight="700"><tspan x="0" y="0">CH 2</tspan></text>
    <rect x="43.07" y="329.95" width="88.99" height="36.22" fill="#fcea10"/>
    <text transform="translate(47.78 339.63)" fill="#1d1d1b" font-family="URWDINCond-Bold, &apos;URW DIN Cond&apos;" font-size="10" font-weight="700"><tspan x="0" y="0">Pull down Switch Z and </tspan><tspan x=".92" y="12">tap the reset button to </tspan><tspan x="-.23" y="24">enter Calibration Mode</tspan></text>
    <rect x="101.14" y="388.61" width="22.9" height="9.97" fill="#fcea10"/>
    <text transform="translate(102.77 396.81)" fill="#1d1d1b" font-family="URWDINCond-Bold, &apos;URW DIN Cond&apos;" font-size="9" font-weight="700"><tspan x="0" y="0">RESET</tspan></text>
  </g>
</svg>